{"asset":{"generator":"3D Builder","version":"2.0"},"scene":0,"scenes":[{"nodes":[0]}],"nodes":[{"mesh":0,"matrix":[0.99999988079071045,0,0,0,0,-1.1920927533992653E-7,-0.9999997615814209,0,0,0.9999997615814209,-1.1920927533992653E-7,0,6.0724282264709473,-192.45478820800781,-0.43599456548690796,1]}],"meshes":[{"primitives":[{"attributes":{"POSITION":0,"TEXCOORD_0":5},"mode":4,"indices":10,"material":0},{"attributes":{"POSITION":1,"TEXCOORD_0":6},"mode":4,"indices":11,"material":1},{"attributes":{"POSITION":2,"TEXCOORD_0":7},"mode":4,"indices":12,"material":2},{"attributes":{"POSITION":3,"TEXCOORD_0":8},"mode":4,"indices":13,"material":3},{"attributes":{"POSITION":4,"TEXCOORD_0":9},"mode":4,"indices":14,"material":4}]}],"materials":[{"pbrMetallicRoughness":{"baseColorFactor":[1,1,1,1],"metallicFactor":0,"roughnessFactor":1,"baseColorTexture":{"index":0,"texCoord":0}},"alphaMode":"OPAQUE"},{"pbrMetallicRoughness":{"baseColorFactor":[1,1,1,1],"metallicFactor":0,"roughnessFactor":1,"baseColorTexture":{"index":1,"texCoord":0}},"alphaMode":"OPAQUE"},{"pbrMetallicRoughness":{"baseColorFactor":[1,1,1,1],"metallicFactor":0,"roughnessFactor":1,"baseColorTexture":{"index":2,"texCoord":0}},"alphaMode":"OPAQUE"},{"pbrMetallicRoughness":{"baseColorFactor":[1,1,1,1],"metallicFactor":0,"roughnessFactor":1,"baseColorTexture":{"index":3,"texCoord":0}},"alphaMode":"OPAQUE"},{"pbrMetallicRoughness":{"baseColorFactor":[1,1,1,1],"metallicFactor":0,"roughnessFactor":1,"baseColorTexture":{"index":4,"texCoord":0}},"alphaMode":"OPAQUE"}],"textures":[{"source":0,"sampler":0},{"source":1,"sampler":0},{"source":2,"sampler":0},{"source":3,"sampler":0},{"source":4,"sampler":0}],"images":[{"uri":"tatsugaike_uav_trimmed.1001.jpg"},{"uri":"tatsugaike_uav_trimmed.1002.jpg"},{"uri":"Tatsugaike_FARO_trimmed_mesh.png"},{"uri":"above_water.1001.jpg"},{"uri":"above_water.1002.jpg"}],"samplers":[{"magFilter":9729,"wrapS":10497,"wrapT":10497}],"accessors":[{"bufferView":0,"byteOffset":0,"count":28490,"componentType":5126,"type":"VEC3","min":[-18.46803092956543,-7.0425829887390137,201.93663024902344],"max":[-1.3641229867935181,15.42337703704834,207.99313354492187]},{"bufferView":0,"byteOffset":341880,"count":22356,"componentType":5126,"type":"VEC3","min":[-18.80500602722168,-6.9698309898376465,202.35429382324219],"max":[-1.6487360000610352,15.284687042236328,208.47459411621094]},{"bufferView":0,"byteOffset":610152,"count":141011,"componentType":5126,"type":"VEC3","min":[-21.062206268310547,-11.875905990600586,195.5394287109375],"max":[13.65777587890625,18.854455947875977,208.74734497070312]},{"bufferView":0,"byteOffset":2302284,"count":33588,"componentType":5126,"type":"VEC3","min":[-3.7128839492797852,-2.2869579792022705,192.454833984375],"max":[1.1772329807281494,2.1484839916229248,197.75152587890625]},{"bufferView":0,"byteOffset":2705340,"count":32111,"componentType":5126,"type":"VEC3","min":[-3.5558719635009766,-2.6501059532165527,192.454833984375],"max":[1.1957099437713623,2.1138451099395752,197.67192077636719]},{"bufferView":1,"byteOffset":0,"count":28490,"componentType":5126,"type":"VEC2"},{"bufferView":1,"byteOffset":227920,"count":22356,"componentType":5126,"type":"VEC2"},{"bufferView":1,"byteOffset":406768,"count":141011,"componentType":5126,"type":"VEC2"},{"bufferView":1,"byteOffset":1534856,"count":33588,"componentType":5126,"type":"VEC2"},{"bufferView":1,"byteOffset":1803560,"count":32111,"componentType":5126,"type":"VEC2"},{"bufferView":2,"byteOffset":0,"count":137847,"componentType":5125,"type":"SCALAR"},{"bufferView":2,"byteOffset":551388,"count":103350,"componentType":5125,"type":"SCALAR"},{"bufferView":2,"byteOffset":964788,"count":304470,"componentType":5125,"type":"SCALAR"},{"bufferView":2,"byteOffset":2182668,"count":103968,"componentType":5125,"type":"SCALAR"},{"bufferView":2,"byteOffset":2598540,"count":100359,"componentType":5125,"type":"SCALAR"}],"bufferViews":[{"buffer":0,"byteOffset":0,"byteLength":3090672,"byteStride":12,"target":34962},{"buffer":0,"byteOffset":3090672,"byteLength":2060448,"byteStride":8,"target":34962},{"buffer":0,"byteOffset":5151120,"byteLength":2999976,"target":34963}],"buffers":[{"byteLength":8151096,"uri":"tatugaike.bin"}]}